# xmcd
#
# Track frame offsets:
# 150
# 19607
# 37631
# 50927
# 63899
# 78785
# 96497
# 113999
# 131407
# 144266
# 155546
# 177992
# 193574
#
# Disc length: 2843 seconds
#
#
# Revision: 0
# Processed by: cddbd v1.4PL0 Copyright (c) Steve Scherf et al.
# Submitted via: FreeRIP 2.12 
#
DISCID=a40b190d
DTITLE=Tabby Thomas - Long Live the King of the Swamp Blues
DYEAR=1999
DGENRE=Blues
TTITLE0=HooDoo King
TTITLE1=Junkie Blues
TTITLE2=Hey Baby
TTITLE3=Tomorrow
TTITLE4=Hey We Gonna Rock Tonight
TTITLE5=Dont Say a Mumblin Word
TTITLE6=Evil Woman Blues
TTITLE7=Stagger Lee
TTITLE8=Two Gun Pete
TTITLE9=Blues at the Box
TTITLE10=Born Blues
TTITLE11=Person to Person
TTITLE12=Keep Yourself From Crying Too
EXTD=
EXTT0=
EXTT1=
EXTT2=
EXTT3=
EXTT4=
EXTT5=
EXTT6=
EXTT7=
EXTT8=
EXTT9=
EXTT10=
EXTT11=
EXTT12=
PLAYORDER=
